<?xml version="1.0" encoding="UTF-8" standalone="no"?>
<svg
   version="1.0"
   width="1024.000000pt"
   height="1024.000000pt"
   viewBox="0 0 1024.000000 1024.000000"
   preserveAspectRatio="xMidYMid meet"
   id="svg20"
   sodipodi:docname="FG-Logo.svg"
   inkscape:version="1.3.2 (091e20e, 2023-11-25, custom)"
   xmlns:inkscape="http://www.inkscape.org/namespaces/inkscape"
   xmlns:sodipodi="http://sodipodi.sourceforge.net/DTD/sodipodi-0.dtd"
   xmlns="http://www.w3.org/2000/svg"
   xmlns:svg="http://www.w3.org/2000/svg">
  <defs
     id="defs20" />
  <sodipodi:namedview
     id="namedview20"
     pagecolor="#505050"
     bordercolor="#eeeeee"
     borderopacity="1"
     inkscape:showpageshadow="0"
     inkscape:pageopacity="0"
     inkscape:pagecheckerboard="0"
     inkscape:deskcolor="#505050"
     inkscape:document-units="pt"
     inkscape:zoom="0.65258789"
     inkscape:cx="682.66667"
     inkscape:cy="682.66667"
     inkscape:window-width="1920"
     inkscape:window-height="1129"
     inkscape:window-x="-8"
     inkscape:window-y="-8"
     inkscape:window-maximized="1"
     inkscape:current-layer="svg20" />
  <g
     transform="translate(0.000000,1024.000000) scale(0.100000,-0.100000)"
     fill="#000000"
     stroke="none"
     id="g20">
    <path
       d="M4830 8904 c-205 -18 -442 -60 -660 -115 -840 -215 -1643 -764 -2128 -1454 -360 -512 -584 -1089 -669 -1720 -25 -184 -24 -687 0 -865 88 -624 301 -1171 658 -1682 361 -518 838 -923 1439 -1222 382 -190 810 -311 1260 -358 160 -16 596 -16 765 0 461 46 881 169 1299 382 679 345 1170 805 1573 1475 361 599 542 1361 494 2072 -35 512 -150 939 -376 1398 -301 610 -716 1082 -1285 1462 -404 269 -868 465 -1327 558 -260 53 -409 67 -713 70 -157 1 -305 1 -330 -1z m590 -379 c636 -56 1185 -264 1715 -650 317 -231 543 -460 760 -770 401 -573 625 -1322 602 -2005 -17 -498 -131 -940 -362 -1400 -254 -508 -608 -920 -1060 -1235 -487 -339 -999 -535 -1585 -607 -165 -20 -634 -17 -800 5 -471 64 -918 217 -1305 446 -126 74 -329 219 -465 330 -618 507 -1060 1311 -1172 2136 -26 186 -31 588 -10 760 29 237 75 451 139 650 166 516 441 972 808 1341 282 283 592 502 967 684 532 257 1161 369 1768 315z"
       id="path1" />
    <path
       d="M5030 8231 c-114 -41 -186 -164 -161 -277 15 -65 44 -109 98 -149 l42 -30 0 -212 1 -213 -39 0 c-22 0 -93 -7 -158 -15 -266 -35 -573 -124 -812 -236 -46 -21 -85 -39 -87 -39 -2 0 -4 101 -4 224 0 191 2 225 16 237 59 49 76 172 34 248 -39 70 -89 104 -158 109 -69 5 -122 -17 -169 -72 -84 -95 -62 -240 47 -312 l40 -27 0 -253 0 -253 -97 -72 c-130 -97 -342 -311 -422 -425 -234 -335 -367 -676 -407 -1041 l-18 -163 -146 0 -147 0 -29 45 c-99 157 -327 145 -418 -24 -87 -161 30 -361 212 -361 74 0 125 17 171 57 l39 33 166 0 166 0 0 -42 c0 -51 25 -209 46 -293 67 -265 195 -531 365 -757 78 -104 269 -294 375 -374 172 -129 418 -266 615 -341 192 -74 486 -143 674 -157 44 -4 95 -9 113 -12 l32 -5 0 -207 0 -207 -51 -44 c-63 -54 -90 -111 -91 -189 -1 -98 48 -177 137 -218 137 -64 299 7 340 149 11 38 15 74 11 101 -9 59 -60 141 -106 172 l-40 27 0 213 0 214 49 0 c117 0 364 43 556 96 261 73 569 221 788 380 454 329 774 880 823 1417 l7 77 159 0 159 0 60 -42 c51 -36 68 -43 122 -46 85 -5 140 11 192 59 125 115 109 310 -33 395 -66 40 -109 48 -177 34 -69 -14 -130 -59 -157 -115 l-22 -45 -148 0 c-112 0 -148 3 -148 13 -1 57 -34 305 -50 375 -82 345 -244 679 -456 933 -105 127 -298 300 -411 370 -23 14 -23 15 -23 276 l0 263 49 47 c62 61 79 112 61 191 -53 236 -399 200 -400 -41 0 -68 16 -110 59 -156 l31 -33 0 -209 c0 -115 -4 -209 -9 -209 -4 0 -46 17 -92 39 -264 121 -618 215 -896 236 l-93 8 0 213 c0 118 4 214 8 214 5 0 27 16 51 36 73 63 102 146 81 233 -36 150 -180 231 -320 182z m-1195 -507 c32 -34 32 -68 0 -99 -30 -30 -64 -32 -99 -4 -36 28 -36 80 0 108 36 28 70 26 99 -5z m2610 20 c24 -10 46 -60 39 -89 -13 -53 -86 -73 -124 -35 -56 56 9 153 85 124z m-1485 -1779 l0 -205 -505 0 -505 0 0 -215 0 -215 400 0 400 0 0 -210 0 -210 -400 0 -400 0 0 -365 0 -365 -210 0 -210 0 0 995 0 995 715 0 715 0 0 -205z m1247 174 c43 -6 121 -24 173 -41 97 -31 288 -121 327 -154 l22 -19 -111 -125 c-61 -69 -130 -147 -154 -173 l-43 -48 -53 35 c-187 119 -379 136 -563 47 -96 -46 -169 -109 -229 -199 -68 -103 -88 -161 -94 -278 -7 -149 22 -261 99 -375 129 -192 379 -285 590 -219 111 34 109 30 109 186 l0 134 -160 0 -160 0 0 210 0 210 365 0 365 0 0 -444 c0 -244 3 -451 6 -460 9 -22 -141 -129 -261 -187 -246 -118 -504 -130 -761 -38 -93 34 -229 115 -313 187 -164 140 -290 383 -322 618 -56 421 157 836 527 1026 93 48 221 93 308 107 75 13 243 13 333 0z"
       id="path2" />
    <path
       d="M4269 8117 c-49 -26 -84 -71 -99 -129 -38 -140 97 -278 242 -247 149 32 204 223 99 343 -51 58 -164 74 -242 33z m151 -127 c24 -24 26 -67 4 -98 -33 -48 -134 -14 -134 47 0 61 86 95 130 51z"
       id="path3" />
    <path
       d="M5770 8127 c-90 -48 -125 -102 -124 -187 2 -187 210 -275 340 -144 67 67 80 143 40 230 -35 76 -82 108 -165 112 -42 2 -75 -2 -91 -11z m124 -138 c53 -41 21 -119 -48 -119 -25 0 -40 7 -55 26 -27 35 -26 59 4 89 30 30 64 32 99 4z"
       id="path4" />
    <path
       d="M3126 7446 c-133 -49 -176 -216 -84 -322 80 -90 205 -95 293 -10 72 69 82 153 30 242 -49 84 -151 122 -239 90z m127 -148 c38 -45 2 -118 -58 -118 -38 0 -75 37 -75 74 0 69 87 98 133 44z"
       id="path5" />
    <path
       d="M6936 7445 c-137 -48 -181 -229 -80 -328 43 -43 80 -58 139 -58 174 0 264 191 153 325 -56 68 -132 90 -212 61z m102 -131 c49 -34 47 -100 -5 -123 -37 -17 -52 -14 -84 18 -36 36 -36 51 -3 90 29 34 58 39 92 15z"
       id="path6" />
    <path
       d="M2620 6640 l0 -370 80 0 80 0 -2 368 -3 367 -77 3 -78 3 0 -371z"
       id="path7" />
    <path
       d="M7420 6640 l0 -370 80 0 80 0 0 370 0 370 -80 0 -80 0 0 -370z"
       id="path8" />
    <path
       d="M2280 6050 l0 -310 75 0 75 0 0 310 0 310 -75 0 -75 0 0 -310z"
       id="path9" />
    <path
       d="M7780 6050 l0 -310 75 0 75 0 0 310 0 310 -75 0 -75 0 0 -310z"
       id="path10" />
    <path
       d="M7784 4595 c-3 -6 -3 -165 -2 -355 l3 -345 73 -3 72 -3 0 355 0 354 -71 4 c-42 2 -73 -1 -75 -7z"
       id="path11" />
    <path
       d="M2280 4245 l0 -355 75 0 75 0 0 355 0 355 -75 0 -75 0 0 -355z"
       id="path12" />
    <path
       d="M2620 3660 l0 -301 78 3 77 3 3 298 2 297 -80 0 -80 0 0 -300z"
       id="path13" />
    <path
       d="M7420 3660 l0 -300 80 0 80 0 0 300 0 300 -80 0 -80 0 0 -300z"
       id="path14" />
    <path
       d="M3129 3275 c-89 -28 -148 -125 -133 -221 8 -53 35 -96 87 -138 35 -28 45 -31 111 -31 64 0 78 4 114 29 47 32 92 112 92 161 0 140 -138 241 -271 200z m119 -141 c32 -22 30 -76 -4 -103 -15 -12 -37 -21 -49 -21 -36 0 -75 37 -75 71 0 59 75 91 128 53z"
       id="path15" />
    <path
       d="M6960 3280 c-157 -27 -216 -237 -98 -347 75 -70 194 -68 271 5 42 40 58 78 58 135 0 64 -11 95 -52 141 -50 58 -106 78 -179 66z m90 -150 c11 -11 20 -33 20 -50 0 -65 -78 -93 -125 -45 -30 30 -31 54 -4 89 26 33 79 36 109 6z"
       id="path16" />
    <path
       d="M3695 2896 c-38 -17 -90 -72 -104 -109 -16 -43 -13 -117 8 -162 67 -148 281 -152 358 -6 71 135 -26 292 -179 291 -29 -1 -66 -7 -83 -14z m140 -136 c61 -67 -34 -159 -105 -102 -28 23 -30 75 -4 103 24 26 85 25 109 -1z"
       id="path17" />
    <path
       d="M6325 2891 c-185 -85 -134 -362 70 -379 138 -11 250 117 216 245 -34 127 -167 189 -286 134z m144 -137 c29 -36 26 -60 -9 -96 -25 -24 -36 -29 -58 -23 -41 10 -62 34 -62 72 0 70 86 101 129 47z"
       id="path18" />
    <path
       d="M4299 2635 c-86 -27 -148 -126 -136 -217 22 -162 211 -233 333 -125 48 41 67 82 67 144 0 144 -129 241 -264 198z m124 -142 c27 -25 22 -78 -9 -102 -35 -28 -69 -26 -99 4 -72 71 32 166 108 98z"
       id="path19" />
    <path
       d="M5789 2637 c-93 -34 -139 -98 -139 -191 0 -92 36 -150 115 -187 157 -73 329 82 275 246 -14 43 -62 100 -99 120 -41 21 -112 26 -152 12z m105 -138 c53 -41 18 -129 -51 -129 -32 0 -73 42 -73 75 0 33 41 75 73 75 13 0 36 -9 51 -21z"
       id="path20" />
  </g>
  <path
     style="fill:#f9f9f9;stroke-width:1.53236"
     d="m 652.01945,1117.8338 c -71.49106,-3.0489 -155.37833,-30.788 -216.32698,-71.5331 -72.44154,-48.42828 -119.90162,-101.71117 -157.37756,-176.68603 -16.32867,-32.66736 -25.9373,-58.37524 -34.65067,-92.70782 -10.22863,-40.30302 -12.06498,-56.01379 -12.17948,-104.20053 -0.10214,-42.9892 0.34129,-47.8709 7.79485,-85.81219 17.79636,-90.58987 69.08937,-180.73871 137.43805,-241.55104 60.25525,-53.61132 131.83413,-90.47715 207.52041,-106.88087 96.14247,-20.83726 195.07323,-10.92958 282.56494,28.2982 32.19351,14.43429 70.47492,38.07461 100.91078,62.31651 84.24461,67.10011 139.08721,161.98778 158.75381,274.67316 5.441,31.17574 6.7761,84.09059 2.9578,117.22559 -9.7091,84.25377 -44.027,165.10222 -99.518,234.45118 -12.351,15.43539 -46.14261,49.04844 -62.22165,61.89274 -42.00815,33.557 -96.69532,63.3024 -146.34045,79.5973 -54.84396,18.0013 -101.76984,23.7981 -169.32585,20.9169 z m 47.07936,-42.2503 c 8.40027,-4.9046 14.54522,-15.2709 15.43863,-26.0443 0.85999,-10.3705 -3.42985,-19.7265 -12.8446,-28.0137 l -6.76729,-5.9568 v -27.77236 -27.7724 h 10.57426 c 12.2819,0 39.59269,-4.42063 61.29031,-9.9207 46.83034,-11.87087 99.14619,-38.61523 132.70558,-67.8403 46.83294,-40.7843 82.35954,-105.3265 89.62241,-162.81962 1.01145,-8.00658 2.13257,-16.10894 2.49139,-18.00524 0.63793,-3.37133 1.10212,-3.44693 20.927,-3.40858 l 20.2746,0.0392 8.259,5.26225 c 9.7789,6.23069 18.7379,7.91577 28.9986,5.45426 14.8498,-3.5624 24.833,-16.60046 24.7693,-32.3487 -0.077,-19.02956 -14.3552,-33.61123 -32.9121,-33.61123 -12.3611,0 -24.3486,7.19895 -28.4415,17.08024 l -1.848,4.46132 -19.2982,-0.42735 -19.29831,-0.42734 -1.95674,-16.64568 C 985.12255,596.16102 969.1341,552.48552 941.10582,510.34398 927.2949,489.57876 900.40621,461.28279 879.9581,445.99589 l -11.8758,-8.87825 v -34.75803 -34.75804 l 5.34431,-5.17991 c 2.93938,-2.84894 6.46557,-8.11588 7.836,-11.70429 4.63388,-12.13363 -2.38124,-28.7852 -14.20881,-33.72708 -6.40797,-2.67742 -17.58516,-2.67742 -23.99312,0 -10.48018,4.3789 -17.38413,17.7326 -15.44321,29.87046 0.92095,5.75921 2.19623,8.31362 8.70458,17.43541 2.39621,3.3584 2.66823,6.97887 2.29854,30.59178 l -0.41932,26.78256 -15.3236,-6.65341 C 791.82125,401.5326 751.34638,390.45251 720.2095,386.91144 c -8.42798,-0.95849 -17.65037,-2.08531 -20.49419,-2.50406 l -5.17058,-0.76136 0.65959,-26.63269 0.6596,-26.6327 7.13184,-6.64148 c 11.94821,-11.1267 14.91752,-24.14465 8.65699,-37.95389 -6.18207,-13.63624 -15.71455,-19.92069 -30.21639,-19.92069 -11.95097,0 -20.8958,4.66715 -27.41387,14.30373 -9.95568,14.71891 -7.80169,30.76669 5.7671,42.96619 l 7.55347,6.79122 v 26.78659 c 0,30.07857 0.63555,28.59249 -12.25888,28.66451 -24.8908,0.13903 -80.03827,14.48893 -115.64965,30.09314 -8.40402,3.68248 -15.81682,6.69541 -16.47288,6.69541 -0.65606,0 -1.18861,-11.89495 -1.18341,-26.43322 0.008,-21.52044 0.47373,-27.28762 2.50757,-31.03031 1.37396,-2.52839 3.50736,-6.53036 4.74088,-8.89326 1.24173,-2.37865 2.24275,-8.39716 2.24275,-13.48431 0,-7.36534 -0.80256,-10.40087 -4.04547,-15.30123 -6.32842,-9.56289 -12.02278,-12.3782 -23.8519,-11.79249 -11.38144,0.56354 -15.89744,3.1435 -22.08727,12.61828 -7.75743,11.87427 -3.81776,29.9847 8.35832,38.42272 l 6.07555,4.21036 -0.0331,33.12044 -0.033,33.12044 -8.41677,6.0301 c -20.68184,14.81732 -51.89958,46.47247 -65.052,65.9635 -27.787,41.17856 -43.96688,83.9385 -50.052,132.2767 l -2.73839,21.7529 -19.20176,-0.0936 -19.20176,-0.0936 -4.60968,-6.41889 c -13.32722,-18.55793 -40.92337,-17.4517 -53.90228,2.16073 -5.38727,8.14073 -6.60146,21.47512 -2.84992,31.29836 5.04065,13.19878 20.71543,22.12231 35.33856,20.118 7.51273,-1.02975 17.41106,-5.5133 20.56711,-9.3161 1.64984,-1.98794 5.86298,-2.41054 24.03217,-2.41054 h 22.0316 v 6.63601 c 0,21.31005 12.52203,64.76829 26.96239,93.5741 26.83013,53.52108 64.90845,91.84793 122.44277,123.24196 38.14033,20.81154 87.10761,35.13201 134.46465,39.32417 l 11.87579,1.05128 v 27.32298 27.32306 l -6.00885,4.7591 c -8.0963,6.4123 -12.37948,15.6429 -12.37948,26.6786 0,4.8178 0.94461,11.0204 2.09915,13.7836 2.69875,6.459 13.43628,15.6457 20.63856,17.6576 8.0454,2.2475 19.90461,0.6208 27.40637,-3.7592 z M 593.02357,1064.393 c 14.61484,-6.7452 19.98354,-21.4671 13.19356,-36.179 -11.5688,-25.0662 -47.26214,-19.6107 -51.6062,7.8877 -1.86641,11.8146 4.35355,23.3069 15.30679,28.2816 7.9272,3.6004 15.31913,3.6035 23.10585,0.01 z m 196.55355,0.5245 c 11.56436,-4.8319 17.21076,-13.1029 17.21076,-25.2108 0,-8.7979 -2.31423,-14.1887 -8.67427,-20.2063 -8.63571,-8.1707 -21.55276,-9.7567 -31.78922,-3.9032 -10.03281,5.7371 -12.40295,10.2925 -12.40295,23.8388 0,13.9615 2.99922,19.4748 13.3932,24.6197 7.75101,3.8367 14.51582,4.0986 22.26248,0.8618 z m -269.65478,-38.7784 c 15.44679,-10.9991 14.33215,-36.34927 -2.01567,-45.84226 -4.98584,-2.89522 -7.84219,-3.4469 -15.65897,-3.02438 -10.65318,0.57583 -15.6808,3.37036 -21.60211,12.00724 -3.07047,4.4786 -3.50021,6.68849 -3.0174,15.5168 0.626,11.4467 3.2743,16.3487 12.10194,22.4008 7.07636,4.8515 22.65992,4.3053 30.19221,-1.0582 z m 351.7785,-0.7239 c 7.41035,-5.6522 10.74925,-12.3985 10.74925,-21.719 0,-15.36592 -9.9215,-25.58634 -25.66134,-26.43441 -7.62437,-0.4108 -10.52049,0.15488 -15.37868,3.00381 -7.4406,4.3633 -11.44222,9.64419 -13.1942,17.41226 -2.58069,11.44244 2.0277,22.39134 12.42484,29.51944 4.45923,3.0572 6.70255,3.4995 15.35181,3.0267 8.20002,-0.4482 11.1921,-1.3642 15.70832,-4.8088 z M 438.99078,978.79299 c 10.46767,-5.25914 16.88217,-19.66252 13.82044,-31.03293 -5.143,-19.09968 -29.6345,-27.43719 -43.87314,-14.9355 -7.24374,6.36008 -9.75813,11.81454 -9.75813,21.1683 0,9.47436 3.93626,17.20296 11.85173,23.27014 4.4876,3.43972 7.07134,4.21355 14.06206,4.21162 5.09429,-10e-4 10.725,-1.08795 13.89704,-2.68163 z m 504.63344,0.61372 c 2.7252,-1.13866 7.11517,-4.5307 9.7555,-7.53788 9.35088,-10.65006 8.06366,-26.18259 -3.08815,-37.26398 -10.27108,-10.20619 -24.11442,-10.3978 -35.39882,-0.48997 -13.56927,11.91398 -10.46631,36.8851 5.56507,44.78505 6.21765,3.06394 16.50753,3.28903 23.1664,0.50678 z M 370.0651,916.03632 c 0.42139,-0.38727 1.00648,-18.57577 1.30017,-40.41886 l 0.534,-39.71473 h -11.64361 -11.64361 v 41.4957 41.49571 l 10.34343,-1.07683 c 5.68889,-0.59228 10.68822,-1.39372 11.10962,-1.78099 z m 641.2929,-38.75985 v -40.60756 l -11.1096,-0.45022 -11.1096,-0.45022 v 41.508 41.508 l 11.1096,-0.45022 11.1096,-0.45022 z M 324.09428,799.89226 V 751.6229 h -10.72653 -10.72652 v 47.24778 c 0,25.98629 0.45971,47.7075 1.02157,48.26936 0.56187,0.56187 5.3888,1.02158 10.72653,1.02158 h 9.70495 z m 734.00072,0 V 751.6229 h -10.7265 -10.7265 v 47.42671 47.4267 l 8.811,0.55291 c 4.8461,0.30409 9.6731,0.68329 10.7266,0.84266 1.4979,0.22659 1.9154,-10.23118 1.9154,-47.97962 z M 324.09428,559.31163 v -42.13991 h -10.72653 -10.72652 v 41.11834 c 0,22.6151 0.45971,41.57806 1.02157,42.13991 0.56187,0.56187 5.3888,1.02158 10.72653,1.02158 h 9.70495 z m 734.00072,0 v -42.13991 h -10.7265 -10.7265 v 42.13991 42.13992 h 10.7265 10.7265 z M 371.58656,489.97232 c -0.006,-21.70206 -0.45048,-44.11284 -0.98776,-49.80173 l -0.97688,-10.34343 h -10.50494 -10.50493 v 49.80172 49.80172 h 11.4927 11.49271 z m 640.53764,-10.34344 v -49.80172 h -11.4927 -11.4927 v 49.80172 49.80172 h 11.4927 11.4927 z M 436.38891,423.11426 c 10.69721,-4.59005 19.28001,-18.68998 17.04031,-27.99401 -4.10499,-17.05287 -16.80656,-26.65197 -32.20961,-24.34214 -7.03983,1.05568 -15.89264,7.3189 -19.27314,13.63543 -4.86222,9.08515 -4.01317,21.88326 2.01328,30.34661 6.56299,9.21689 21.46924,13.05689 32.42916,8.35411 z m 504.04986,0.51602 c 26.17848,-7.27047 25.89792,-44.35413 -0.39519,-52.23174 -16.3551,-4.90011 -33.56557,8.76927 -33.62705,26.70823 -0.0286,8.34404 2.35416,13.78688 8.64906,19.75673 7.49529,7.10824 14.67089,8.7391 25.37318,5.76678 z M 590.793,333.29488 c 6.16132,-1.71166 14.27525,-9.39733 16.69402,-15.81289 2.72539,-7.2289 1.91247,-18.08311 -1.84668,-24.65704 -5.67512,-9.92451 -10.33973,-12.40295 -23.3433,-12.40295 -12.47012,0 -17.06925,2.22387 -23.19108,11.21385 -9.72844,14.28633 -2.6362,35.00181 13.99692,40.88312 7.39166,2.61362 10.5728,2.75315 17.69012,0.77591 z m 200.08298,-1.40566 c 3.46904,-1.57535 8.29597,-5.47152 10.72653,-8.65814 3.84694,-5.04362 4.41919,-7.11356 4.41919,-15.9854 0,-17.81765 -9.50775,-27.58986 -26.84319,-27.58986 -9.23151,0 -14.70309,2.53728 -21.04307,9.75813 -6.07584,6.92 -7.48428,15.22977 -4.38708,25.88373 4.81895,16.57665 21.11962,23.86107 37.12762,16.59154 z"
     id="path21"
     transform="scale(0.75)" />
  <path
     style="fill:#f9f9f9;stroke-width:1.53236"
     d="M 471.2009,675.00486 V 543.22185 h 95.00636 95.00636 v 26.81631 26.81631 h -67.42387 -67.42387 v 29.11485 29.11486 h 52.86644 52.86645 v 27.58249 27.58249 h -52.86645 -52.86644 v 48.26936 48.26936 H 498.78339 471.2009 Z"
     id="path22"
     transform="scale(0.75)" />
  <path
     style="fill:#f9f9f9;stroke-width:1.53236"
     d="m 787.63337,811.9366 c -36.77498,-5.81015 -67.73187,-23.12279 -87.29729,-48.821 -9.77344,-12.83694 -17.30472,-27.54267 -23.15075,-45.20464 -3.9585,-11.95934 -4.31808,-14.96843 -4.39477,-36.77665 -0.0639,-18.16658 0.55141,-26.0501 2.61669,-33.52653 13.22668,-47.88143 43.38583,-79.24695 92.49853,-96.1985 11.10052,-3.83141 14.02722,-4.17225 36.58356,-4.26055 20.97662,-0.0821 26.399,0.4127 37.54283,3.42599 10.94005,2.95818 44.53499,17.85399 51.9856,23.05012 1.74369,1.21607 -1.03608,5.14023 -13.79125,19.46894 -8.78631,9.87024 -17.75344,20.04754 -19.92692,22.61622 l -3.95181,4.67032 -9.07326,-5.49872 c -27.09472,-16.42036 -58.84053,-16.08858 -83.76074,0.87538 -11.27624,7.67609 -24.21398,23.88923 -28.93668,36.26247 -3.95271,10.35589 -5.39218,31.03222 -3.0365,43.61561 4.95571,26.47203 25.5222,49.79299 50.86888,57.68177 11.5743,3.60233 29.95053,3.80477 41.33932,0.4554 13.42586,-3.94843 13.68628,-4.43123 13.68628,-25.37224 v -18.15083 h -20.68687 -20.68687 v -27.58249 -27.58249 h 47.50318 47.50318 l 0.0209,57.08043 c 0.0115,31.39424 0.42083,58.57121 0.90961,60.39327 1.91658,7.14464 -31.18748,27.51311 -56.76026,34.92382 -13.29722,3.85338 -37.23378,6.09339 -47.60461,4.4549 z"
     id="path23"
     transform="scale(0.75)" />
  <path
     style="fill:#f9f9f9;stroke-width:1.53236"
     d="m 419.29748,402.91305 c -4.80023,-6.1025 -1.32645,-12.92727 6.57994,-12.92727 5.93186,0 8.54682,2.3653 8.54682,7.73078 0,8.64546 -9.77295,12.00276 -15.12676,5.19649 z"
     id="path24"
     transform="scale(0.75)" />
  <path
     style="fill:#f9f9f9;stroke-width:1.53236"
     d="m 501.08193,349.84568 c -6.08239,-3.44911 -7.23997,-9.78677 -2.56097,-14.0212 4.07034,-3.68361 8.77967,-3.11382 12.4101,1.50151 4.0367,5.13184 3.9878,6.01641 -0.58531,10.58953 -4.22909,4.22909 -4.94623,4.37851 -9.26382,1.93016 z"
     id="path25"
     transform="scale(0.75)" />
  <path
     style="fill:#f9f9f9;stroke-width:1.53236"
     d="m 575.40142,311.83539 c -1.6856,-1.6856 -3.06472,-3.97886 -3.06472,-5.09615 0,-3.03233 6.64591,-8.69509 10.2047,-8.69509 6.47285,0 10.89512,10.46681 6.3448,15.01713 -2.83707,2.83706 -10.0803,2.17858 -13.48478,-1.22589 z"
     id="path26"
     transform="scale(0.75)" />
  <path
     style="fill:#f9f9f9;stroke-width:1.53236"
     d="m 772.39666,311.49443 c -3.24271,-4.62961 -3.02296,-6.18769 1.46769,-10.40644 3.20473,-3.01069 4.55393,-3.37337 8.01759,-2.15527 5.80625,2.04195 8.01552,8.70764 4.26106,12.85627 -3.78798,4.18567 -10.71219,4.0373 -13.74634,-0.29456 z"
     id="path27"
     transform="scale(0.75)" />
  <path
     style="fill:#f9f9f9;stroke-width:1.53236"
     d="m 850.03494,349.29134 c -6.96958,-4.88168 -2.63425,-16.0029 6.23831,-16.0029 7.29051,0 10.05568,11.62566 3.80629,16.0029 -4.26252,2.98558 -5.78208,2.98558 -10.0446,0 z"
     id="path28"
     transform="scale(0.75)" />
  <path
     style="fill:#f9f9f9;stroke-width:1.53236"
     d="m 929.01243,405.19717 c -1.46456,-0.85327 -3.42266,-2.97114 -4.35133,-4.70638 -1.41351,-2.64117 -0.99555,-3.87825 2.56644,-7.59617 5.05007,-5.27114 6.6104,-5.457 11.05441,-1.31678 4.08629,3.80696 4.32481,9.31296 0.55137,12.72787 -3.18371,2.88123 -5.9713,3.13426 -9.82089,0.89146 z"
     id="path29"
     transform="scale(0.75)" />
  <path
     style="fill:#f9f9f9;stroke-width:1.53236"
     d="m 926.57912,959.54209 c -4.12238,-4.38807 -4.15021,-5.72364 -0.20742,-9.95573 3.80696,-4.08629 9.31296,-4.32481 12.72788,-0.55137 3.32705,3.67635 3.21869,8.3638 -0.26626,11.51764 -3.90032,3.52974 -8.33217,3.16427 -12.2542,-1.01054 z"
     id="path30"
     transform="scale(0.75)" />
  <path
     style="fill:#f9f9f9;stroke-width:1.53236"
     d="m 850.03494,1011.2711 c -6.522,-4.5681 -2.74311,-16.00286 5.28855,-16.00286 2.8517,0 6.23377,2.7775 8.70508,7.14896 1.15535,2.0437 -6.0172,11.2394 -8.76659,11.2394 -1.00175,0 -3.35392,-1.0735 -5.22704,-2.3855 z"
     id="path31"
     transform="scale(0.75)" />
  <path
     style="fill:#f9f9f9;stroke-width:1.53236"
     d="m 773.77247,1045.1396 c -4.5775,-4.5775 -4.70884,-6.9026 -0.63683,-11.2734 3.688,-3.9586 7.18162,-4.2439 11.85823,-0.9682 4.35164,3.048 4.37508,8.8509 0.052,12.8784 -4.3708,4.0721 -6.69592,3.9407 -11.27342,-0.6368 z"
     id="path32"
     transform="scale(0.75)" />
  <path
     style="fill:#f9f9f9;stroke-width:1.53236"
     d="m 576.19311,1045.2348 c -4.73571,-4.7357 -4.85731,-7.541 -0.50274,-11.5979 4.16055,-3.8761 9.16554,-4.0051 12.49862,-0.3221 4.7069,5.2011 2.3196,12.6711 -4.71716,14.7603 -2.49617,0.7411 -4.46592,-0.027 -7.27872,-2.8403 z"
     id="path33"
     transform="scale(0.75)" />
  <path
     style="fill:#f9f9f9;stroke-width:1.53236"
     d="m 497.5575,1010.2854 c -2.9944,-2.9944 -2.27243,-11.61256 1.12515,-13.43089 6.54594,-3.50328 13.89199,0.25539 13.89199,7.10799 0,6.4536 -10.47565,10.8644 -15.01714,6.3229 z"
     id="path34"
     transform="scale(0.75)" />
  <path
     style="fill:#f9f9f9;stroke-width:1.53236"
     d="m 419.29748,959.15996 c -6.89889,-8.77051 5.61082,-17.84613 13.5944,-9.86254 3.96748,3.96748 3.86312,5.47035 -0.69653,10.03 -4.8254,4.8254 -9.01326,4.77103 -12.89787,-0.16746 z"
     id="path35"
     transform="scale(0.75)" />
</svg>
